<svg xmlns="http://www.w3.org/2000/svg">
<!-- Лого -->
  <symbol viewBox="0 0 191 38" id="logo-mobile">
    <g clip-path="url(#a)"><path d="M6.07 20.72v-2.26c6.68-.92 13.42-1.36 20.17-1.33 0 .6 0 1.21-.06 1.82a25.52 25.52 0 0 1 6-1.82A16.67 16.67 0 0 0 .19 20.39l5.88.33ZM27.24 24.23c-1.16 1.28-1.39 1.2-1.39 3.45v9.18A16.64 16.64 0 0 0 33.32 23a17.3 17.3 0 0 0-.32-3.1 33.1 33.1 0 0 0-5.76 4.33ZM6.36 25.72s-3.79-1.44-5.19-1.83A8.54 8.54 0 0 0 0 23.61a16.65 16.65 0 0 0 8.68 14L6.36 25.72Z" fill="#FDC305"/><path d="M26.29 17.12A89.8 89.8 0 0 0 24.89.65S24.75-.64 24 .41c-.59 1.25-1 2.58-1.2 3.94a70.34 70.34 0 0 0-12.77.34C9.24 2 7.85.75 7.18 1c-.67.25-.72 3.31-.72 3.31l-.33 14.1c6.68-.9 13.42-1.34 20.16-1.29Z" fill="#F06351"/><path d="M12.41 14c0-.09 1 .68 1.41.92.41.24.61.42.61.59 0 .17-.27.34-.63.34s-.91-.12-1-.27h1.23A8.34 8.34 0 0 1 12.41 14ZM19.89 14.11l-1.09 1.33c0 .06-.17.35.18.3.41-.06.82-.16 1.22-.29.11 0 .07-.19-.11-.17-.18.02-.69.05-1 .11l.84-1.26s.07-.13-.04-.02ZM16.75 20.2c.46-.2.85-.56 1.09-1 .28-.65 0-.91-.44-1-.6-.11-1.22.01-1.74.34-.39.36-.34.72-.05 1 .35.27.73.49 1.14.66Z" fill="#000"/><path d="M16.35 21.45c-.11.23-.27.43-.46.6-.28.23-.63.36-1 .38a2.15 2.15 0 0 1-1.47-.43 2.3 2.3 0 0 1-.53-.44c-.1-.11-.22-.2-.36-.26 0 0 .75 4.1 2.57 4.75 1.82.65 2.14-.75 2.2-1.13a5.61 5.61 0 0 0-.82-3.23c-.02-.31-.03-.11-.13-.24Z" fill="#F06351"/><path d="M14.71 22.59a3.44 3.44 0 0 1-2.36-1.47.14.14 0 0 1 .03-.15.14.14 0 0 1 .2 0c.5.7 1.26 1.16 2.11 1.3a2.1 2.1 0 0 0 1.63-1l.14-.19.1.21s.37.76 1 .8c.63.04 1.05-.41 1.61-1.28a.14.14 0 0 1 .2 0 .15.15 0 0 1 .05.2c-.64 1-1.27 1.44-1.88 1.4a1.55 1.55 0 0 1-1.12-.76 2.26 2.26 0 0 1-1.71.94Z" fill="#000"/><path d="M26.24 18.92a58.63 58.63 0 0 0-5.07 5.19A31.63 31.63 0 0 1 15.88 29c-.22-.53-1.62-1.51-1.62-1.51s-3.13-2.14-5.18-3.82a34.14 34.14 0 0 1-3.13-3l-2-.11c2.89 4.2 7.12 7.3 12 8.8.86-.14 3.27-1.86 5.07-3.26a58.13 58.13 0 0 0 5.94-5.89c.5-.59.89-1.27 1.14-2-1.1.39-1.86.71-1.86.71Z" fill="#F06351"/></g><g clip-path="url(#b)" fill="#111"><path d="M91.26 29.54a6.87 6.87 0 0 1-1.26-4.3v-6.4c-.1-1.54.3-3.08 1.19-4.38.86-1 2.2-1.46 4.18-1.46 1.98 0 3.24.46 4.03 1.3a5.42 5.42 0 0 1 1.19 3.78v1.54h-3.87v-1.77a3.7 3.7 0 0 0-.24-1.54 1.16 1.16 0 0 0-1.1-.62c-.56 0-.95.16-1.11.54a4.85 4.85 0 0 0-.24 1.7v8.22c-.04.56.07 1.12.32 1.62.15.38.55.54 1.1.54.56 0 .87-.16 1.03-.54.18-.52.26-1.07.24-1.62v-1.84h3.87v1.54a5.78 5.78 0 0 1-1.19 3.84c-.79.93-2.13 1.39-4.03 1.39-1.9-.08-3.32-.54-4.1-1.54ZM105.25 13.23h4.5l3.33 17.54h-3.64l-.63-3.7h-2.6l-.64 3.7h-3.72l3.4-17.54Zm3.24 11.54-.94-6.85-.95 6.85h1.9ZM115.84 16.15h-2.68v-2.92h9.4v2.85h-2.69v14.69h-4.03V16.15ZM129.75 13.23h6.96v1.85h-4.5v5.77h3.63v1.77h-3.64v6.46h4.5v1.77h-7.03V13.23h.08ZM138.76 13.23h1.74l5.14 11.62V13.23h2.05v17.54h-1.58l-5.22-12v12h-2.13V13.23ZM150.06 13.23h6.96v1.85h-4.5v5.77h3.63v1.77h-3.64v6.46h4.5v1.77h-6.95V13.23ZM159.07 13.23h3.64c1.43-.1 2.85.28 4.03 1.08.87.69 1.26 1.92 1.26 3.54 0 2.23-.7 3.61-2.21 4.07l2.53 8.77h-2.45l-2.37-8.23h-1.98v8.23H159V13.23h.08Zm3.48 7.54c.81.06 1.63-.15 2.3-.62.47-.38.7-1.15.7-2.3a4.84 4.84 0 0 0-.24-1.7c-.17-.39-.48-.71-.86-.92a3.69 3.69 0 0 0-1.74-.3h-1.1v5.76h.94v.08ZM171.16 29.46a7.6 7.6 0 0 1-1.1-4.46v-5.85c-.02-1.11.11-2.22.4-3.3.26-.81.78-1.51 1.5-2 .88-.51 1.9-.75 2.92-.7 1.66 0 2.84.39 3.55 1.23a5.77 5.77 0 0 1 1.11 3.85v.62h-2.37v-.54c0-.65-.05-1.29-.16-1.93-.06-.4-.3-.76-.63-1a2.5 2.5 0 0 0-1.5-.38 2.42 2.42 0 0 0-1.58.46 1.73 1.73 0 0 0-.64 1.23c-.1.69-.15 1.38-.15 2.08v6.54c-.06 1 .1 2 .47 2.92.32.62.95.85 1.9.85.37.04.75-.02 1.09-.19.34-.16.62-.42.8-.74.42-.97.61-2.02.56-3.07v-1.23h-2.3v-1.77h4.59v8.69h-1.58l-.24-2c-.2.67-.64 1.25-1.22 1.66-.6.4-1.3.6-2.02.57a4.05 4.05 0 0 1-3.4-1.54ZM184.68 24.62 180.8 13.3h2.38l2.76 8.46 2.69-8.46H191l-3.87 11.3v6.16h-2.37v-6.15h-.08Z"/></g>
    <defs><clipPath id="a"><path fill="#fff" d="M0 0h33.32v37.61H0z"/></clipPath><clipPath id="b"><path fill="#fff" transform="translate(90 13)" d="M0 0h101v18H0z"/></clipPath></defs>
  </symbol>

  <symbol viewBox="0 0 174 52" id="logo-tablet">
    <g clip-path="url(#clip0_2403_706)">
    <path d="M51.5819 20.854C50.0969 17.265 47.7053 14.1312 44.6456 11.7649C41.5858 9.39869 37.9646 7.88262 34.143 7.36781C30.3214 6.85301 26.4328 7.35745 22.8646 8.83086C19.2965 10.3043 16.1735 12.6952 13.8068 15.7654C11.4402 18.8355 9.9125 22.4777 9.37609 26.329C8.83968 30.1802 9.31325 34.106 10.7496 37.7151C12.186 41.3242 14.535 44.4906 17.5625 46.8987C20.59 49.3068 24.1903 50.8726 28.0046 51.4399C27.505 49.6238 26.9967 47.6166 26.5488 45.4878C27.8519 46.3405 29.2235 47.0816 30.6492 47.7035C30.6492 47.7035 30.7526 49.5804 30.8904 51.6745C32.4308 51.7013 33.9698 51.5644 35.4818 51.2661C35.4427 51.0477 35.4427 50.8241 35.4818 50.6057C35.7316 48.9808 36.4208 46.0526 36.5586 44.167C37.552 43.2297 38.3948 42.1421 39.0567 40.9434L39.005 41.3257C38.5312 45.0273 37.5406 48.9808 36.9376 50.0757C36.7424 50.4381 36.5021 50.7739 36.2226 51.0749C39.3408 50.3371 42.2626 48.924 44.7855 46.9336C47.3083 44.9433 49.3718 42.4233 50.8329 39.5484C52.2941 36.6735 53.1179 33.5124 53.2472 30.2843C53.3765 27.0563 52.8083 23.8385 51.5819 20.854ZM50.3156 24.1472C49.9366 24.5208 49.1527 24.7728 49.0235 23.6432C48.8942 22.5136 48.8598 21.7229 48.8598 21.7229C48.8598 21.7229 47.1972 18.7425 46.577 18.7078C45.9568 18.673 41.5549 21.7229 40.3919 23.0524C39.3841 24.1733 39.1859 24.0951 39.1859 26.0675C39.1859 27.5534 39.3755 33.1666 39.2721 37.459L32.2514 39.3446C30.0448 39.9834 27.8007 40.4825 25.5323 40.8391L24.6709 35.7733H24.5503L22.3364 24.3297C22.3364 24.3297 19.0543 23.0784 17.8483 22.7396C17.2821 22.4897 16.6568 22.4084 16.0462 22.5054C15.4356 22.6024 14.8653 22.8736 14.4026 23.287C13.9306 23.7039 13.5531 24.2185 13.296 24.7958C13.0388 25.373 12.908 25.9994 12.9124 26.6323C13.0945 27.0362 13.2331 27.4585 13.3258 27.8922C13.3689 28.3093 12.2921 28.2659 11.603 28.2659C10.9138 28.2659 10.8105 27.0146 11.3532 25.5462C11.7766 24.417 12.3013 23.3292 12.921 22.2964C13.387 21.3738 13.9881 20.5273 14.7041 19.7852C14.7041 19.7852 14.8247 19.4898 15.7809 19.5767C16.7371 19.6636 22.0521 19.9503 22.0521 19.9503L22.0952 17.9779C27.8722 17.1733 33.6987 16.7842 39.5305 16.8135C39.5305 17.3436 39.5305 17.8736 39.5305 18.4037C41.7394 17.3869 44.118 16.7974 46.5425 16.6658C46.6723 16.6625 46.8008 16.6917 46.9166 16.7509C47.0323 16.81 47.1317 16.8973 47.2058 17.0047C47.4987 17.3783 49.2819 19.6115 49.4886 19.933C50.0677 20.7677 50.5942 21.6383 51.065 22.5397C50.9037 23.1104 50.6505 23.6505 50.3156 24.1385V24.1472Z" fill="#FDC305"/>
    <path d="M48.6363 18.8294C49.0411 19.3508 49.3943 19.8113 49.4977 19.9503C50.0768 20.7851 50.6033 21.6557 51.0741 22.5571C50.9102 23.1091 50.6601 23.6312 50.3333 24.1038C49.9543 24.4774 49.1704 24.7294 49.0411 23.5998C48.9119 22.4702 48.8602 21.7229 48.8602 21.7229C48.8602 21.7229 47.1977 18.7425 46.5775 18.7078C45.9572 18.673 41.5553 21.7229 40.3924 23.0524C39.3845 24.1733 39.1864 24.0951 39.1864 26.0675C39.1864 27.3709 39.3328 31.8458 39.2984 35.8254C40.8576 35.9992 43.149 36.4337 43.8381 37.459C43.8381 37.459 43.5883 31.2202 50.5659 34.4873C50.5659 34.4873 50.8071 25.9806 60.4378 28.1616C57.1639 24.2844 53.1505 21.1107 48.6363 18.8294Z" fill="#F06351"/>
    <path d="M39.5654 16.8135C39.6004 11.9987 39.1967 7.1907 38.3594 2.45035C38.3594 2.45035 38.2302 1.32075 37.61 2.24181C37.0982 3.34291 36.7499 4.51402 36.5762 5.71747C32.8938 5.47914 29.1975 5.57802 25.5327 6.0129C24.8264 3.62338 23.6204 2.53724 23.0432 2.82398C22.466 3.11072 22.3971 5.67403 22.3971 5.67403L22.1129 17.9779C27.8956 17.1725 33.7279 16.7834 39.5654 16.8135Z" fill="#F06351"/>
    <path d="M39.0651 40.9434C39.1771 40.0136 39.2374 38.7798 39.2718 37.4156L32.2515 39.3011C30.0459 39.9546 27.8019 40.4682 25.5327 40.8391L26.4889 45.1837C26.4889 45.2793 26.4889 45.3748 26.5492 45.4704C27.8522 46.3231 29.2237 47.0642 30.6494 47.6862C32.7328 46.6815 34.7171 45.4799 36.5757 44.0975V44.1497C37.5646 43.217 38.4044 42.1354 39.0651 40.9434Z" fill="#E55645"/>
    <path d="M27.5657 14.0938C27.5226 14.0069 28.4271 14.6847 28.7803 14.8932C29.1334 15.1018 29.3057 15.2582 29.3057 15.4059C29.3057 15.5536 29.0817 15.7013 28.7716 15.7013C28.4615 15.7013 27.9792 15.5971 27.9103 15.4754C27.8413 15.3538 28.4271 15.4754 28.72 15.4754H28.9698C28.4394 15.084 27.9667 14.6189 27.5657 14.0938Z" fill="black"/>
    <path d="M34.0264 14.1894C34.0264 14.1894 33.165 15.3016 33.0875 15.3538C33.0099 15.4059 32.941 15.6492 33.2511 15.6057C33.6071 15.5521 33.9585 15.4708 34.302 15.3624C34.3968 15.3103 34.3623 15.1887 34.1986 15.206C34.035 15.2234 33.6129 15.2495 33.3373 15.3016L34.0694 14.1981C34.0694 14.1981 34.0953 14.0938 34.0264 14.1894Z" fill="black"/>
    <path d="M31.3215 19.4985C31.7208 19.321 32.0508 19.0156 32.2604 18.6296C32.5016 18.0561 32.2604 17.8389 31.8814 17.7607C31.36 17.6647 30.8218 17.7702 30.374 18.0561C30.038 18.3776 30.0811 18.6904 30.374 18.925C30.6649 19.1552 30.9832 19.3478 31.3215 19.4985Z" fill="black"/>
    <path d="M31.0113 20.5933C30.9124 20.7904 30.778 20.9672 30.615 21.1147C30.3697 21.3138 30.0681 21.4294 29.7536 21.4449C29.2794 21.4918 28.8052 21.3552 28.4271 21.0625C28.2535 20.9601 28.0989 20.8278 27.9706 20.6715C27.8844 20.5769 27.7785 20.5027 27.6605 20.4543C27.6605 20.4543 28.3065 24.0255 29.8742 24.599C31.4419 25.1725 31.7348 23.9387 31.7779 23.6085C31.8304 22.6196 31.5841 21.6379 31.0715 20.7932C31.0715 20.5325 31.0543 20.7063 31.0113 20.5933Z" fill="#F06351"/>
    <path d="M29.5469 21.5839C29.1438 21.5254 28.7566 21.3852 28.4087 21.1716C28.0608 20.9581 27.7594 20.6756 27.5226 20.3413C27.5015 20.3174 27.4897 20.2865 27.4897 20.2544C27.4897 20.2224 27.5015 20.1915 27.5226 20.1676C27.5339 20.156 27.5473 20.1468 27.5621 20.1405C27.5769 20.1343 27.5927 20.131 27.6088 20.131C27.6248 20.131 27.6407 20.1343 27.6555 20.1405C27.6703 20.1468 27.6837 20.156 27.6949 20.1676C27.9081 20.4692 28.1785 20.7252 28.4905 20.9206C28.8025 21.116 29.1499 21.2469 29.5124 21.3058C29.7993 21.2841 30.0769 21.194 30.3225 21.0429C30.5681 20.8919 30.7746 20.6842 30.9251 20.4369L31.0457 20.2718L31.1319 20.463C31.1319 20.463 31.4592 21.1234 31.9932 21.1581C32.5273 21.1929 32.9063 20.7932 33.3973 20.0372C33.4156 20.0096 33.444 19.9904 33.4763 19.9838C33.5086 19.9773 33.5422 19.984 33.5696 20.0025C33.597 20.0209 33.616 20.0496 33.6225 20.0822C33.629 20.1147 33.6223 20.1486 33.604 20.1762C33.0298 21.0278 32.4871 21.4362 31.976 21.4014C31.7785 21.375 31.5893 21.3043 31.4224 21.1946C31.2554 21.0848 31.115 20.9388 31.0113 20.7671C30.8427 21.0045 30.6238 21.201 30.3705 21.3423C30.1172 21.4836 29.8358 21.5661 29.5469 21.5839Z" fill="black"/>
    <path d="M31.2353 33.2795C33.0192 33.2795 34.4655 31.8207 34.4655 30.0211C34.4655 28.2215 33.0192 26.7626 31.2353 26.7626C29.4513 26.7626 28.0051 28.2215 28.0051 30.0211C28.0051 31.8207 29.4513 33.2795 31.2353 33.2795Z" fill="#FDC305"/>
    <path d="M35.5163 27.3709L32.8201 28.5092L33.8107 23.6172L27.3503 32.0978L30.0465 30.9595L29.0559 35.8602L35.5163 27.3709ZM29.1506 30.6988L32.734 25.998L32.0363 29.4737L33.7591 28.7611L30.1498 33.4707L30.8476 29.995L29.1506 30.6988Z" fill="#111111"/>
    <path d="M27.9447 29.4215C28.4776 29.4215 28.9095 28.9858 28.9095 28.4483C28.9095 27.9109 28.4776 27.4751 27.9447 27.4751C27.4119 27.4751 26.98 27.9109 26.98 28.4483C26.98 28.9858 27.4119 29.4215 27.9447 29.4215Z" fill="#111111"/>
    <path d="M33.5612 32.9493C33.9371 32.9493 34.2417 32.642 34.2417 32.2629C34.2417 31.8838 33.9371 31.5764 33.5612 31.5764C33.1854 31.5764 32.8807 31.8838 32.8807 32.2629C32.8807 32.642 33.1854 32.9493 33.5612 32.9493Z" fill="#111111"/>
    <path d="M34.3882 31.0638C34.5547 31.0638 34.6897 30.9276 34.6897 30.7597C34.6897 30.5917 34.5547 30.4555 34.3882 30.4555C34.2217 30.4555 34.0867 30.5917 34.0867 30.7597C34.0867 30.9276 34.2217 31.0638 34.3882 31.0638Z" fill="#111111"/>
    <path d="M39.5224 18.3863C37.9674 19.8002 36.5029 21.3123 35.1377 22.9133C33.7778 24.5028 32.2433 25.9312 30.5635 27.171C30.374 26.7105 29.1594 25.8503 29.1594 25.8503C29.1594 25.8503 26.4545 23.9821 24.6799 22.5136C23.7207 21.7077 22.8169 20.8368 21.9751 19.9069L20.2522 19.8113C22.7392 23.4757 26.3826 26.183 30.5893 27.4925C31.3302 27.3709 33.4148 25.8677 34.974 24.6425C36.8187 23.0601 38.5461 21.3437 40.1426 19.5072C40.5717 18.9928 40.9044 18.4039 41.1246 17.7693C40.1426 18.0995 39.5224 18.3863 39.5224 18.3863Z" fill="#F06351"/>
    <path d="M22.3368 24.3297C22.3368 24.3297 19.0548 23.0784 17.8488 22.7396C17.2825 22.4897 16.6572 22.4084 16.0466 22.5054C15.4361 22.6024 14.8658 22.8736 14.4031 23.287C13.931 23.7039 13.5536 24.2185 13.2964 24.7958C13.0393 25.373 12.9084 25.9994 12.9128 26.6323C13.0949 27.0362 13.2335 27.4585 13.3263 27.8922C13.3694 28.3093 12.2926 28.2659 11.6034 28.2659C10.9143 28.2659 10.8109 27.0146 11.3536 25.5462C11.777 24.417 12.3018 23.3292 12.9214 22.2964C8.22664 24.7641 0 30.4642 0 30.4642C2.35316 30.3211 4.71429 30.3909 7.0551 30.6728C11.5776 31.1333 11.3622 34.7306 11.3622 34.7306C12.9529 34.2883 14.574 33.9659 16.2121 33.7661C18.0383 33.6445 18.1675 35.6082 18.1675 35.6082L18.6241 38.9622C19.3173 38.2057 20.0819 37.5189 20.9069 36.9116C21.9703 36.0529 23.3243 35.6476 24.6799 35.782L22.3368 24.3297Z" fill="#F06351"/>
    <path d="M73.7899 36.4945C72.9025 35.1681 72.4782 33.5814 72.584 31.9848V25.468C72.472 23.8596 72.8899 22.2589 73.7727 20.9148C74.5709 19.8779 75.9348 19.3624 77.8643 19.3682C79.7938 19.374 81.1002 19.8287 81.7836 20.7324C82.6168 21.8522 83.0234 23.2368 82.9292 24.6338V26.1631H79.3631V24.5035C79.3583 24.0668 79.3208 23.6311 79.2511 23.2001C79.208 22.8881 79.066 22.5985 78.8462 22.3746C78.7106 22.2573 78.5531 22.1684 78.3831 22.1132C78.213 22.058 78.0337 22.0376 77.8557 22.0531C77.6 22.0146 77.3388 22.0565 77.1076 22.1731C76.8764 22.2898 76.6864 22.4754 76.5636 22.7048C76.3371 23.315 76.2374 23.9657 76.2707 24.6164V32.8885C76.2314 33.5435 76.3465 34.1986 76.6066 34.8001C76.7309 35.0171 76.9153 35.1927 77.1372 35.3054C77.3591 35.4181 77.6088 35.463 77.8557 35.4344C78.0982 35.469 78.3454 35.4255 78.5619 35.31C78.7785 35.1946 78.9533 35.0131 79.0616 34.7914C79.27 34.1801 79.3606 33.5342 79.3286 32.8885V31.1507H82.8948V32.6539C82.9997 34.0715 82.6263 35.4832 81.8353 36.6596C81.0772 37.6154 79.7679 38.0846 77.9073 38.0846C76.0467 38.0846 74.591 37.5633 73.7899 36.4945Z" fill="#111111"/>
    <path d="M87.788 19.6201H91.871L95.3166 37.8674H91.9227L91.3111 33.8356H88.4513L87.7622 37.8413H84.3167L87.788 19.6201ZM90.9321 31.5417L89.8468 24.208L88.77 31.5417H90.9321Z" fill="#111111"/>
    <path d="M97.9615 22.3659H95.1707V19.6201H104.405V22.3659H101.648V37.8413H97.9529L97.9615 22.3659Z" fill="#111111"/>
    <path d="M111.65 19.6201H118.653V21.5144H114.174V27.536H117.809V29.3346H114.174V36.0166H118.696V37.8413H111.65V19.6201Z" fill="#444444"/>
    <path d="M120.729 19.6201H122.452L127.62 31.7241V19.6201H129.722V37.8674H128.111L122.943 25.4245V37.8413H120.807L120.729 19.6201Z" fill="#444444"/>
    <path d="M132.505 19.6201H139.499V21.5144H135.02V27.536H138.69V29.3346H135.055V36.0166H139.551V37.8413H132.505V19.6201Z" fill="#444444"/>
    <path d="M141.576 19.6201H145.211C146.643 19.5039 148.07 19.9075 149.234 20.7584C150.095 21.5144 150.517 22.7482 150.517 24.46C150.517 26.7771 149.773 28.1935 148.286 28.709L150.87 37.8413H148.424L146.055 29.2912H144.1V37.8413H141.576V19.6201ZM145.021 27.4404C145.851 27.5214 146.681 27.2858 147.347 26.78C147.618 26.4569 147.82 26.0812 147.942 25.6763C148.063 25.2713 148.101 24.8456 148.053 24.4253C148.071 23.8357 147.986 23.2477 147.804 22.6874C147.73 22.4808 147.615 22.2913 147.467 22.1301C147.319 21.969 147.141 21.8393 146.942 21.749C146.383 21.5176 145.78 21.4137 145.176 21.4449H144.065V27.4751L145.021 27.4404Z" fill="#444444"/>
    <path d="M153.911 36.4945C153.088 35.0926 152.707 33.4714 152.817 31.8458V25.7634C152.788 24.5896 152.933 23.418 153.248 22.2877C153.497 21.438 154.026 20.6992 154.747 20.1936C155.618 19.6642 156.626 19.41 157.641 19.4637C158.298 19.4007 158.961 19.4832 159.582 19.7053C160.204 19.9274 160.771 20.2839 161.242 20.7497C162.068 21.9176 162.459 23.3426 162.344 24.7728V25.4506H159.976V24.8858C159.992 24.2103 159.94 23.5348 159.821 22.8699C159.742 22.4437 159.509 22.0626 159.166 21.8011C158.719 21.5349 158.202 21.4108 157.684 21.4449C157.122 21.3963 156.562 21.5709 156.125 21.9315C155.768 22.2734 155.534 22.7261 155.462 23.2175C155.353 23.9332 155.304 24.657 155.315 25.3811V32.1499C155.247 33.1785 155.421 34.2088 155.824 35.1564C156.057 35.4478 156.354 35.6814 156.691 35.8395C157.028 35.9975 157.396 36.0757 157.768 36.0682C158.139 36.0606 158.504 35.9675 158.835 35.7959C159.165 35.6243 159.452 35.3788 159.674 35.0782C160.089 34.076 160.269 32.9905 160.2 31.9066V30.6206H157.908V28.822H162.474V37.8413H160.914L160.665 35.7472C160.467 36.4429 160.042 37.0508 159.459 37.472C158.876 37.8933 158.168 38.103 157.452 38.0672C156.778 38.1272 156.1 38.0144 155.481 37.7395C154.862 37.4645 154.322 37.0363 153.911 36.4945Z" fill="#444444"/>
    <path d="M167.711 31.4113L163.809 19.6201H166.152L168.917 28.4136L171.639 19.6201H174.008L170.132 31.4113V37.8413H167.72L167.711 31.4113Z" fill="#444444"/>
    </g>
    <defs>
    <clipPath id="clip0_2403_706">
    <rect width="174" height="51.6832" fill="white"/>
    </clipPath>
    </defs>
  </symbol>

  <symbol viewBox="0 0 202 59" id="logo-desktop">
    <g clip-path="url(#clip0_2403_439)">
    <path d="M59.8825 23.8063C58.1585 19.7092 55.3821 16.1318 51.83 13.4305C48.2778 10.7293 44.074 8.99857 39.6374 8.41088C35.2008 7.82319 30.6864 8.39905 26.5441 10.0811C22.4017 11.7631 18.7762 14.4925 16.0287 17.9973C13.2812 21.5021 11.5077 25.6599 10.885 30.0564C10.2622 34.4529 10.812 38.9344 12.4795 43.0545C14.147 47.1745 16.874 50.7892 20.3887 53.5382C23.9034 56.2872 28.083 58.0746 32.5111 58.7223C31.9311 56.6491 31.3411 54.3578 30.8211 51.9275C32.3339 52.9009 33.9262 53.747 35.5813 54.457C35.5813 54.457 35.7013 56.5995 35.8613 58.9901C37.6496 59.0207 39.4362 58.8644 41.1916 58.5239C41.1462 58.2746 41.1462 58.0193 41.1916 57.77C41.4816 55.9151 42.2816 52.5723 42.4416 50.4198C43.595 49.3498 44.5734 48.1082 45.3418 46.7397L45.2818 47.1762C44.7317 51.4018 43.5817 55.9151 42.8817 57.1649C42.655 57.5786 42.3761 57.962 42.0516 58.3056C45.6716 57.4633 49.0636 55.8502 51.9924 53.5781C54.9212 51.3059 57.3168 48.4292 59.013 45.1473C60.7093 41.8653 61.6656 38.2568 61.8158 34.5717C61.9659 30.8867 61.3062 27.2133 59.8825 23.8063ZM58.4124 27.5657C57.9724 27.9923 57.0624 28.2799 56.9123 26.9904C56.7623 25.7009 56.7223 24.7983 56.7223 24.7983C56.7223 24.7983 54.7922 21.3959 54.0722 21.3563C53.3522 21.3166 48.2419 24.7983 46.8918 26.3159C45.7218 27.5955 45.4918 27.5062 45.4918 29.7579C45.4918 31.4541 45.7118 37.862 45.5918 42.7621L37.4414 44.9146C34.8796 45.6438 32.2744 46.2137 29.641 46.6207L28.6409 40.8378H28.5009L25.9308 27.774C25.9308 27.774 22.1206 26.3457 20.7206 25.9588C20.0632 25.6735 19.3372 25.5808 18.6284 25.6915C17.9196 25.8023 17.2575 26.1118 16.7204 26.5837C16.1723 27.0597 15.7342 27.6471 15.4356 28.3061C15.1371 28.9651 14.9852 29.6802 14.9903 30.4027C15.2017 30.8637 15.3626 31.3459 15.4703 31.841C15.5203 32.3171 14.2702 32.2675 13.4702 32.2675C12.6702 32.2675 12.5502 30.8391 13.1802 29.1627C13.6717 27.8737 14.2809 26.632 15.0003 25.4529C15.5413 24.3997 16.2392 23.4333 17.0704 22.5862C17.0704 22.5862 17.2104 22.249 18.3204 22.3482C19.4305 22.4474 25.6008 22.7747 25.6008 22.7747L25.6508 20.523C32.3575 19.6045 39.1216 19.1603 45.8918 19.1938C45.8918 19.7989 45.8918 20.404 45.8918 21.0091C48.4562 19.8483 51.2175 19.1754 54.0322 19.0252C54.1828 19.0214 54.332 19.0548 54.4664 19.1223C54.6008 19.1898 54.7162 19.2894 54.8022 19.4121C55.1423 19.8386 57.2124 22.3879 57.4524 22.7549C58.1246 23.7078 58.7359 24.7017 59.2825 25.7307C59.0951 26.3822 58.8012 26.9988 58.4124 27.5558V27.5657Z" fill="#FDC305"/>
    <path d="M56.4628 21.4951C56.9329 22.0903 57.3429 22.616 57.4629 22.7747C58.1351 23.7277 58.7464 24.7215 59.293 25.7505C59.1027 26.3806 58.8124 26.9767 58.4329 27.5161C57.9929 27.9427 57.0829 28.2303 56.9329 26.9408C56.7829 25.6513 56.7229 24.7983 56.7229 24.7983C56.7229 24.7983 54.7928 21.3959 54.0727 21.3563C53.3527 21.3166 48.2424 24.7983 46.8924 26.3159C45.7223 27.5955 45.4923 27.5062 45.4923 29.7579C45.4923 31.2458 45.6623 36.3542 45.6223 40.8973C47.4324 41.0957 50.0925 41.5916 50.8926 42.7621C50.8926 42.7621 50.6026 35.64 58.703 39.3697C58.703 39.3697 58.983 29.6587 70.1635 32.1485C66.3628 27.7223 61.7035 24.0994 56.4628 21.4951Z" fill="#F06351"/>
    <path d="M45.9323 19.1938C45.9729 13.6973 45.5043 8.2087 44.5322 2.79724C44.5322 2.79724 44.3822 1.50773 43.6622 2.55918C43.068 3.81617 42.6636 5.15308 42.4621 6.5269C38.1871 6.25483 33.896 6.36771 29.6415 6.86415C28.8214 4.13635 27.4214 2.89643 26.7513 3.22377C26.0813 3.55111 26.0013 6.4773 26.0013 6.4773L25.6713 20.523C32.3846 19.6036 39.1554 19.1594 45.9323 19.1938Z" fill="#F06351"/>
    <path d="M45.3515 46.7397C45.4815 45.6784 45.5515 44.2698 45.5915 42.7125L37.4415 44.865C34.8809 45.611 32.2758 46.1974 29.6415 46.6207L30.7515 51.5804C30.7515 51.6895 30.7515 51.7986 30.8215 51.9077C32.3342 52.8811 33.9265 53.7272 35.5815 54.4371C38.0002 53.2903 40.3038 51.9186 42.4615 50.3404V50.4C43.6096 49.3352 44.5845 48.1005 45.3515 46.7397Z" fill="#E55645"/>
    <path d="M32.0016 16.0891C31.9516 15.9899 33.0016 16.7636 33.4116 17.0017C33.8216 17.2397 34.0216 17.4183 34.0216 17.5869C34.0216 17.7556 33.7616 17.9242 33.4016 17.9242C33.0416 17.9242 32.4816 17.8051 32.4016 17.6663C32.3216 17.5274 33.0016 17.6663 33.3416 17.6663H33.6316C33.0159 17.2195 32.4672 16.6885 32.0016 16.0891Z" fill="black"/>
    <path d="M39.502 16.1982C39.502 16.1982 38.502 17.4679 38.412 17.5274C38.322 17.5869 38.2419 17.8647 38.6019 17.8151C39.0152 17.7539 39.4231 17.661 39.8219 17.5373C39.9319 17.4778 39.892 17.3389 39.702 17.3588C39.512 17.3786 39.022 17.4084 38.702 17.4679L39.5519 16.2081C39.5519 16.2081 39.582 16.0891 39.502 16.1982Z" fill="black"/>
    <path d="M36.3617 22.2589C36.8253 22.0563 37.2084 21.7077 37.4517 21.267C37.7317 20.6123 37.4517 20.3643 37.0117 20.275C36.4064 20.1655 35.7817 20.2859 35.2617 20.6123C34.8717 20.9793 34.9217 21.3364 35.2617 21.6042C35.5995 21.867 35.9691 22.0869 36.3617 22.2589Z" fill="black"/>
    <path d="M36.0016 23.5087C35.8868 23.7337 35.7308 23.9355 35.5416 24.1039C35.2568 24.3312 34.9067 24.4631 34.5416 24.4808C33.991 24.5344 33.4405 24.3784 33.0016 24.0444C32.8 23.9274 32.6206 23.7764 32.4716 23.598C32.3715 23.49 32.2486 23.4053 32.1116 23.35C32.1116 23.35 32.8616 27.4269 34.6816 28.0815C36.5016 28.7362 36.8416 27.3277 36.8916 26.9507C36.9525 25.8218 36.6666 24.7011 36.0716 23.7369C36.0716 23.4393 36.0516 23.6377 36.0016 23.5087Z" fill="#F06351"/>
    <path d="M34.3015 24.6395C33.8335 24.5728 33.384 24.4127 32.9801 24.1689C32.5763 23.9251 32.2263 23.6027 31.9515 23.2211C31.9269 23.1938 31.9133 23.1585 31.9133 23.1219C31.9133 23.0853 31.9269 23.05 31.9515 23.0227C31.9646 23.0095 31.9801 22.999 31.9973 22.9919C32.0145 22.9847 32.0329 22.981 32.0515 22.981C32.0702 22.981 32.0886 22.9847 32.1058 22.9919C32.1229 22.999 32.1385 23.0095 32.1515 23.0227C32.399 23.3671 32.7129 23.6593 33.0751 23.8823C33.4374 24.1054 33.8406 24.2549 34.2615 24.3221C34.5945 24.2973 34.9168 24.1945 35.2019 24.022C35.487 23.8496 35.7268 23.6125 35.9015 23.3302L36.0415 23.1417L36.1415 23.36C36.1415 23.36 36.5215 24.1138 37.1415 24.1535C37.7615 24.1932 38.2015 23.7369 38.7715 22.8739C38.7927 22.8423 38.8257 22.8204 38.8632 22.813C38.9007 22.8055 38.9397 22.8132 38.9715 22.8342C39.0034 22.8553 39.0254 22.888 39.0329 22.9252C39.0404 22.9624 39.0327 23.001 39.0115 23.0326C38.3449 24.0047 37.7149 24.4709 37.1215 24.4312C36.8922 24.4011 36.6726 24.3204 36.4788 24.1951C36.285 24.0698 36.1219 23.9031 36.0015 23.7071C35.8059 23.9781 35.5518 24.2025 35.2577 24.3638C34.9636 24.5251 34.6369 24.6193 34.3015 24.6395Z" fill="black"/>
    <path d="M36.2616 37.9909C38.3327 37.9909 40.0116 36.3255 40.0116 34.2712C40.0116 32.2168 38.3327 30.5514 36.2616 30.5514C34.1905 30.5514 32.5116 32.2168 32.5116 34.2712C32.5116 36.3255 34.1905 37.9909 36.2616 37.9909Z" fill="#FDC305"/>
    <path d="M41.2316 31.2458L38.1016 32.5452L39.2516 26.9607L31.7516 36.6419L34.8816 35.3425L33.7316 40.937L41.2316 31.2458ZM33.8416 35.0449L38.0016 29.6786L37.1916 33.6463L39.1916 32.8329L35.0016 38.2092L35.8116 34.2414L33.8416 35.0449Z" fill="#111111"/>
    <path d="M32.4415 33.5868C33.0601 33.5868 33.5615 33.0894 33.5615 32.4758C33.5615 31.8622 33.0601 31.3648 32.4415 31.3648C31.823 31.3648 31.3215 31.8622 31.3215 32.4758C31.3215 33.0894 31.823 33.5868 32.4415 33.5868Z" fill="#111111"/>
    <path d="M38.9619 37.614C39.3982 37.614 39.7519 37.2631 39.7519 36.8304C39.7519 36.3976 39.3982 36.0467 38.9619 36.0467C38.5256 36.0467 38.1719 36.3976 38.1719 36.8304C38.1719 37.2631 38.5256 37.614 38.9619 37.614Z" fill="#111111"/>
    <path d="M39.9219 35.4615C40.1152 35.4615 40.2719 35.3061 40.2719 35.1143C40.2719 34.9226 40.1152 34.7672 39.9219 34.7672C39.7286 34.7672 39.5719 34.9226 39.5719 35.1143C39.5719 35.3061 39.7286 35.4615 39.9219 35.4615Z" fill="#111111"/>
    <path d="M45.8822 20.9892C44.077 22.6034 42.3768 24.3295 40.792 26.1572C39.2133 27.9717 37.4318 29.6023 35.4817 31.0177C35.2617 30.4919 33.8516 29.5099 33.8516 29.5099C33.8516 29.5099 30.7115 27.3773 28.6514 25.7009C27.5377 24.7809 26.4886 23.7867 25.5112 22.7251L23.5111 22.616C26.3983 26.7991 30.628 29.8897 35.5117 31.3847C36.3717 31.2458 38.7919 29.5298 40.602 28.1311C42.7434 26.3247 44.7489 24.3654 46.6022 22.2688C47.1004 21.6816 47.4867 21.0094 47.7423 20.285C46.6023 20.6619 45.8822 20.9892 45.8822 20.9892Z" fill="#F06351"/>
    <path d="M65.2227 3.47176L56.7627 12.8356L55.5427 10.8616L63.6927 0L65.2227 3.47176Z" fill="#FDC305"/>
    <path d="M62.6531 17.1207L68.1931 13.0439L67.4131 9.33406L62.0131 14.1052L62.6531 17.1207Z" fill="#FDC305"/>
    <path d="M59.923 48.9716L66.053 52.1259L69.063 49.8048L62.373 47.077L59.923 48.9716Z" fill="#FDC305"/>
    <path d="M1.94995 5.92182L5.01995 2.58894L14.31 11.5163L13.09 13.7779L1.94995 5.92182Z" fill="#FDC305"/>
    <path d="M7.38003 16.1486L2.68003 13.0439L0.280029 16.8826L5.43003 19.2633L7.38003 16.1486Z" fill="#FDC305"/>
    <path d="M13.91 52.1259L9.35999 55.4489L12.16 59L16.18 55.0124L13.91 52.1259Z" fill="#FDC305"/>
    <path d="M25.9313 27.774C25.9313 27.774 22.1211 26.3457 20.721 25.9588C20.0636 25.6735 19.3377 25.5808 18.6289 25.6915C17.9201 25.8023 17.258 26.1118 16.7208 26.5837C16.1728 27.0597 15.7346 27.6471 15.4361 28.3061C15.1375 28.9651 14.9856 29.6802 14.9907 30.4027C15.2021 30.8637 15.3631 31.3459 15.4708 31.841C15.5208 32.3171 14.2707 32.2675 13.4707 32.2675C12.6706 32.2675 12.5506 30.8391 13.1807 29.1627C13.6722 27.8737 14.2814 26.632 15.0007 25.4529C9.55047 28.27 0 34.7771 0 34.7771C2.73182 34.6137 5.47292 34.6933 8.1904 35.0151C13.4407 35.5409 13.1907 39.6474 13.1907 39.6474C15.0373 39.1425 16.9192 38.7745 18.8209 38.5464C20.941 38.4075 21.091 40.6493 21.091 40.6493L21.6211 44.4781C22.4259 43.6145 23.3134 42.8305 24.2712 42.1372C25.5057 41.157 27.0776 40.6942 28.6514 40.8477L25.9313 27.774Z" fill="#F06351"/>
    <path d="M85.6642 41.6611C84.634 40.1469 84.1415 38.3356 84.2642 36.5129V29.0735C84.1343 27.2374 84.6194 25.4102 85.6442 23.8758C86.5709 22.6921 88.1542 22.1035 90.3942 22.1101C92.6342 22.1167 94.1509 22.6358 94.9442 23.6675C95.9115 24.9458 96.3836 26.5265 96.2742 28.1212V29.867H92.1342V27.9724C92.1286 27.4739 92.0852 26.9766 92.0042 26.4845C91.9542 26.1283 91.7893 25.7978 91.5342 25.5422C91.3767 25.4083 91.1939 25.3068 90.9965 25.2438C90.799 25.1808 90.5909 25.1574 90.3842 25.1752C90.0874 25.1313 89.7842 25.1791 89.5158 25.3122C89.2474 25.4453 89.0268 25.6573 88.8842 25.9191C88.6213 26.6157 88.5055 27.3585 88.5442 28.1014V37.5446C88.4986 38.2923 88.6322 39.0402 88.9342 39.7268C89.0785 39.9745 89.2926 40.175 89.5502 40.3037C89.8078 40.4323 90.0977 40.4835 90.3842 40.4509C90.6658 40.4904 90.9527 40.4407 91.2041 40.3089C91.4555 40.1771 91.6585 39.9699 91.7842 39.7169C92.0261 39.019 92.1313 38.2816 92.0942 37.5446V35.5607H96.2342V37.2767C96.3561 38.895 95.9226 40.5066 95.0042 41.8495C94.1242 42.9407 92.6042 43.4763 90.4442 43.4763C88.2842 43.4763 86.5942 42.8811 85.6642 41.6611Z" fill="#111111"/>
    <path d="M101.915 22.3978H106.655L110.655 43.2283H106.715L106.005 38.6258H102.685L101.885 43.1986H97.8849L101.915 22.3978ZM105.565 36.0071L104.305 27.6352L103.055 36.0071H105.565Z" fill="#111111"/>
    <path d="M113.725 25.5323H110.485V22.3978H121.205V25.5323H118.005V43.1986H113.715L113.725 25.5323Z" fill="#111111"/>
    <path d="M129.616 22.3978H137.746V24.5602H132.546V31.4343H136.766V33.4876H132.546V41.1155H137.796V43.1986H129.616V22.3978Z" fill="#444444"/>
    <path d="M140.157 22.3978H142.157L148.157 36.2154V22.3978H150.597V43.2283H148.727L142.727 29.0239V43.1986H140.247L140.157 22.3978Z" fill="#444444"/>
    <path d="M153.828 22.3978H161.948V24.5602H156.748V31.4343H161.008V33.4876H156.788V41.1155H162.008V43.1986H153.828V22.3978Z" fill="#444444"/>
    <path d="M164.358 22.3978H168.578C170.241 22.265 171.897 22.7259 173.248 23.6972C174.248 24.5602 174.738 25.9687 174.738 27.9228C174.738 30.568 173.875 32.1848 172.148 32.7734L175.148 43.1986H172.308L169.558 33.438H167.288V43.1986H164.358V22.3978ZM168.358 31.3251C169.322 31.4176 170.285 31.1486 171.058 30.5713C171.372 30.2024 171.607 29.7736 171.748 29.3113C171.889 28.849 171.933 28.363 171.878 27.8832C171.898 27.2102 171.8 26.5389 171.588 25.8993C171.502 25.6635 171.369 25.4471 171.198 25.2631C171.026 25.0791 170.819 24.9312 170.588 24.828C169.939 24.5638 169.239 24.4453 168.538 24.4808H167.248V31.3648L168.358 31.3251Z" fill="#444444"/>
    <path d="M178.679 41.6611C177.723 40.0607 177.28 38.21 177.409 36.3542V29.4107C177.374 28.0708 177.543 26.7333 177.909 25.443C178.198 24.473 178.811 23.6297 179.649 23.0525C180.66 22.4481 181.83 22.1579 183.009 22.2192C183.771 22.1473 184.54 22.2414 185.262 22.495C185.984 22.7486 186.642 23.1555 187.189 23.6873C188.148 25.0205 188.602 26.6472 188.469 28.2799V29.0536H185.719V28.4089C185.738 27.6377 185.677 26.8667 185.539 26.1076C185.448 25.6211 185.177 25.186 184.779 24.8875C184.26 24.5836 183.66 24.4419 183.059 24.4808C182.406 24.4254 181.756 24.6247 181.249 25.0363C180.834 25.4267 180.563 25.9435 180.479 26.5044C180.352 27.3215 180.295 28.1477 180.309 28.9743V36.7014C180.229 37.8756 180.432 39.0518 180.899 40.1335C181.17 40.4662 181.515 40.7329 181.906 40.9133C182.297 41.0937 182.725 41.183 183.156 41.1744C183.587 41.1658 184.011 41.0595 184.394 40.8636C184.778 40.6677 185.111 40.3874 185.369 40.0442C185.851 38.9001 186.059 37.661 185.979 36.4237V34.9556H183.319V32.9023H188.619V43.1986H186.809L186.519 40.808C186.29 41.6022 185.796 42.2962 185.119 42.777C184.442 43.2578 183.621 43.4973 182.789 43.4565C182.007 43.5249 181.22 43.3961 180.501 43.0823C179.783 42.7684 179.156 42.2795 178.679 41.6611Z" fill="#444444"/>
    <path d="M194.699 35.8583L190.169 22.3978H192.889L196.099 32.4361L199.259 22.3978H202.009L197.509 35.8583V43.1986H194.709L194.699 35.8583Z" fill="#444444"/>
    </g>
    <defs>
    <clipPath id="clip0_2403_439">
    <rect width="202" height="59" fill="white"/>
    </clipPath>
    </defs>
  </symbol>

  <symbol viewBox="0 0 128 24" id="logo-footer">
    <g clip-path="url(#a)" fill="#111">
    <path d="M1.6 22.05A9.5 9.5 0 0 1 0 16.31V7.79a9.63 9.63 0 0 1 1.5-5.84C2.6.62 4.3 0 6.81 0c2.5 0 4.1.62 5.1 1.74a7.49 7.49 0 0 1 1.51 5.03v2.05h-4.9V6.46c.03-.7-.07-1.4-.3-2.05a1.46 1.46 0 0 0-.59-.63 1.41 1.41 0 0 0-.82-.19c-.7 0-1.2.2-1.4.72-.23.73-.33 1.49-.3 2.25v10.98c-.05.74.08 1.48.4 2.15.2.52.7.72 1.4.72s1.1-.2 1.3-.72c.23-.7.33-1.42.3-2.15v-2.46h4.91v2.05a7.98 7.98 0 0 1-1.5 5.13c-1 1.23-2.7 1.84-5.1 1.84-2.41-.1-4.22-.72-5.22-2.05ZM19.33.3h5.7l4.22 23.4h-4.61l-.8-4.93h-3.3l-.8 4.92h-4.72L19.33.31Zm4.1 15.4-1.2-9.14-1.2 9.13h2.4ZM32.75 4.2h-3.4V.3h11.91v3.8h-3.4v19.6h-5.1V4.2ZM50.38.3h8.81v2.47h-5.7v7.7h4.6v2.35h-4.6v8.62h5.7v2.35h-8.91V.31h.1ZM61.8.3H64l6.51 15.5V.3h2.6v23.4h-2l-6.6-16v16H61.8V.3ZM76.12.3h8.81v2.47h-5.7v7.7h4.6v2.35h-4.6v8.62h5.7v2.35h-8.81V.31ZM87.54.3h4.6a7.87 7.87 0 0 1 5.11 1.44c1.1.93 1.6 2.57 1.6 4.72 0 2.98-.9 4.82-2.8 5.44l3.2 11.69h-3.1l-3-10.97h-2.5v10.97h-3.21V.31h.1Zm4.4 10.06a4.3 4.3 0 0 0 2.9-.82c.6-.51.91-1.54.91-3.08a6.77 6.77 0 0 0-.3-2.25 2.58 2.58 0 0 0-1.1-1.24 4.47 4.47 0 0 0-2.2-.4h-1.4v7.69h1.2v.1ZM102.86 21.95a10.57 10.57 0 0 1-1.4-5.95V8.2c-.03-1.48.14-2.96.5-4.4a5.2 5.2 0 0 1 1.9-2.67c1.12-.68 2.41-1 3.7-.92 2.11 0 3.61.5 4.52 1.64a7.98 7.98 0 0 1 1.4 5.12v.82h-3v-.71c0-.86-.07-1.72-.2-2.57a2.06 2.06 0 0 0-.8-1.33 3.04 3.04 0 0 0-1.91-.51 2.96 2.96 0 0 0-2 .61 2.3 2.3 0 0 0-.8 1.64c-.14.92-.2 1.85-.2 2.77v8.72a9.53 9.53 0 0 0 .6 3.9c.4.82 1.2 1.13 2.4 1.13a2.37 2.37 0 0 0 2.4-1.23c.53-1.3.77-2.7.7-4.1v-1.65h-2.9V12.1h5.8v11.6h-2l-.3-2.67c-.26.89-.8 1.67-1.55 2.2-.74.55-1.64.81-2.55.77a4.9 4.9 0 0 1-4.3-2.05ZM119.99 15.49 115.08.4h3l3.51 11.28 3.4-11.28H128l-4.9 15.08v8.2h-3.01v-8.2h-.1Z"/></g><defs><clipPath id="a"><path fill="#fff" d="M0 0h128v24H0z"/></clipPath></defs>
  </symbol>

<!-- Соцсети -->
  <symbol viewBox="0 0 27 17" id="social-vk">
    <path d="M0 2.33876C0 1.48373 0.515103 1.02268 1.54531 0.955621L5.51515 0.980769C5.78158 0.980769 5.95921 1.10651 6.04802 1.35799C6.45655 2.61538 6.91392 3.70094 7.42014 4.61465C7.92637 5.52835 8.58801 6.58038 9.40507 7.77071C9.47611 7.9216 9.59157 7.99704 9.75143 7.99704C9.87576 7.99704 9.97345 7.93836 10.0445 7.82101L10.1244 7.54438L10.1511 3.19379C10.1511 2.89201 10.0756 2.69083 9.92461 2.59024C9.77363 2.48965 9.49388 2.4142 9.08535 2.36391C8.76563 2.31361 8.60577 2.12919 8.60577 1.81065C8.60577 1.74359 8.61465 1.69329 8.63241 1.65976C9.00542 0.57002 10.0711 0.0251479 11.8296 0.0251479L13.3216 0C13.9966 0 14.5561 0.15927 15.0001 0.477811C15.4442 0.796351 15.6662 1.29931 15.6662 1.98669V7.69527C15.7906 7.77909 15.906 7.82101 16.0126 7.82101C16.279 7.82101 16.5099 7.67012 16.7053 7.36834C18.6592 4.78649 19.716 3.05966 19.8759 2.18787C19.8759 2.1711 19.8936 2.12919 19.9291 2.06213C20.0535 1.81065 20.2577 1.5927 20.5419 1.40828C20.8261 1.22387 21.0748 1.09813 21.288 1.03107C21.359 0.997535 21.4389 0.980769 21.5277 0.980769H25.6574L25.9239 1.00592C26.2791 1.00592 26.5544 1.16519 26.7498 1.48373C26.8209 1.58432 26.8697 1.69329 26.8964 1.81065C26.923 1.92801 26.9408 2.04536 26.9496 2.16272C26.9585 2.28008 26.963 2.34714 26.963 2.36391V2.53994C26.8386 3.22732 26.5233 3.9608 26.0171 4.74038C25.5109 5.51997 24.867 6.36243 24.0855 7.26775C23.304 8.17308 22.8155 8.76825 22.6201 9.05326C22.4603 9.25444 22.3803 9.43886 22.3803 9.60651C22.3803 9.74063 22.4514 9.89152 22.5935 10.0592L26.4834 14.6864C26.6965 14.9546 26.8031 15.248 26.8031 15.5666C26.8031 15.9522 26.6432 16.2707 26.3235 16.5222C26.0038 16.7737 25.6219 16.9162 25.1779 16.9497L24.7249 16.9749H20.6752C20.6574 16.9749 20.6219 16.979 20.5686 16.9874C20.5153 16.9958 20.4798 17 20.462 17C20.0712 17 19.7071 16.8407 19.3696 16.5222C19.2453 16.3881 18.4105 15.3989 16.8652 13.5547C16.7764 13.4374 16.652 13.3284 16.4922 13.2278C16.4211 13.4961 16.3279 13.8817 16.2124 14.3846C16.097 14.8876 16.0126 15.248 15.9593 15.466L15.8794 15.8935C15.7018 16.4803 15.3287 16.8323 14.7604 16.9497L14.3874 16.9749H11.7763C10.3021 16.9749 8.83224 16.3378 7.36686 15.0636C5.90148 13.7894 4.58264 12.1423 3.41034 10.122C2.23803 8.10182 1.14566 5.75049 0.133216 3.06805C0.0444054 2.8501 0 2.607 0 2.33876ZM16.0126 8.85207C15.6396 8.85207 15.3021 8.75567 15.0001 8.56287C14.6982 8.37007 14.5472 8.10602 14.5472 7.77071V1.98669C14.5472 1.65138 14.4584 1.41248 14.2808 1.26997C14.1032 1.12747 13.7923 1.05621 13.3483 1.05621L11.8296 1.10651C11.0658 1.10651 10.4886 1.23225 10.0978 1.48373C10.8793 1.8358 11.2701 2.40582 11.2701 3.19379V7.61982C11.2346 8.03895 11.0569 8.38683 10.7372 8.66346C10.4175 8.94009 10.0623 9.0784 9.6715 9.0784C9.13863 9.0784 8.7301 8.83531 8.44591 8.34911C7.06046 6.37081 6.03025 4.4931 5.35529 2.71598L5.1155 2.06213L1.57195 2.03698C1.34104 2.03698 1.21227 2.04956 1.18562 2.0747C1.15898 2.09985 1.14566 2.1711 1.14566 2.28846C1.14566 2.43935 1.16342 2.59862 1.19895 2.76627L1.75845 4.17456C3.25048 7.81262 4.87127 10.6795 6.62085 12.7751C8.37042 14.8708 10.0889 15.9186 11.7763 15.9186H14.4406C14.5472 15.9186 14.6271 15.8893 14.6804 15.8306C14.7337 15.7719 14.7781 15.6588 14.8136 15.4911L14.8669 15.2396L15.3732 13.0266C15.5152 12.7249 15.6396 12.5237 15.7462 12.4231C15.9415 12.2387 16.1725 12.1465 16.4389 12.1465C16.8652 12.1465 17.3003 12.3895 17.7444 12.8757L20.0091 15.5917C20.1512 15.8097 20.3022 15.9186 20.462 15.9186H24.8581C25.391 15.9186 25.6574 15.7929 25.6574 15.5414C25.6574 15.4576 25.6308 15.3738 25.5775 15.2899L21.7142 10.7382C21.4123 10.3861 21.2613 10.0089 21.2613 9.60651C21.2613 9.20414 21.4034 8.81854 21.6876 8.4497C21.9185 8.1144 22.367 7.55695 23.0331 6.77737C23.6992 5.99778 24.2809 5.26849 24.7782 4.5895C25.2756 3.9105 25.6042 3.29438 25.764 2.74112L25.8439 2.4142C25.8262 2.38067 25.8173 2.32618 25.8173 2.25074C25.8173 2.1753 25.8084 2.11243 25.7907 2.06213H21.6077C21.3412 2.16272 21.1281 2.31361 20.9682 2.51479L20.8084 2.9926C20.3643 4.14941 19.2009 5.93491 17.3181 8.34911C16.9451 8.68442 16.5099 8.85207 16.0126 8.85207Z" />
  </symbol>

  <symbol viewBox="0 0 24 19" id="social-yt">
    <path d="M15.8509 8.79275L10.6145 5.30184C10.5159 5.23691 10.4016 5.19985 10.2837 5.19459C10.1657 5.18934 10.0486 5.21608 9.94459 5.27198C9.84061 5.32789 9.75368 5.41087 9.69302 5.51215C9.63236 5.61343 9.60022 5.72924 9.6 5.84729V12.8291C9.60013 12.9481 9.6327 13.0648 9.69421 13.1667C9.75572 13.2686 9.84384 13.3518 9.94909 13.4073C10.0524 13.4631 10.1691 13.4895 10.2864 13.4837C10.4037 13.478 10.5172 13.4402 10.6145 13.3746L15.8509 9.88366C15.9409 9.82395 16.0148 9.7429 16.0658 9.64772C16.1169 9.55255 16.1436 9.44621 16.1436 9.3382C16.1436 9.23019 16.1169 9.12385 16.0658 9.02868C16.0148 8.93351 15.9409 8.85245 15.8509 8.79275ZM10.9091 11.6073V7.06911L14.3127 9.3382L10.9091 11.6073ZM23.3891 3.04366C23.2942 2.67547 23.1131 2.33511 22.8609 2.05061C22.6086 1.76611 22.2924 1.54561 21.9382 1.40729C18.2182 -0.0217993 12.2509 1.91553e-05 12 1.91553e-05C11.7491 1.91553e-05 5.78182 -0.0217993 2.06182 1.40729C1.70764 1.54561 1.3914 1.76611 1.13914 2.05061C0.886889 2.33511 0.705838 2.67547 0.610909 3.04366C0.327273 4.11275 0 6.07638 0 9.3382C0 12.6 0.327273 14.5637 0.610909 15.6327C0.705838 16.0009 0.886889 16.3413 1.13914 16.6258C1.3914 16.9103 1.70764 17.1308 2.06182 17.2691C5.78182 18.6982 11.7491 18.6764 12 18.6764H12.0764C12.8291 18.6764 18.3927 18.6327 21.9382 17.2691C22.2924 17.1308 22.6086 16.9103 22.8609 16.6258C23.1131 16.3413 23.2942 16.0009 23.3891 15.6327C23.6727 14.5637 24 12.6 24 9.3382C24 6.07638 23.6727 4.11275 23.3891 3.04366ZM22.1236 15.3055C22.0807 15.472 21.999 15.6259 21.8853 15.7548C21.7715 15.8838 21.6289 15.984 21.4691 16.0473C17.9782 17.3891 12.0655 17.3673 12 17.3673C11.9345 17.3673 6.02182 17.3891 2.53091 16.0473C2.37107 15.984 2.22846 15.8838 2.11471 15.7548C2.00096 15.6259 1.91929 15.472 1.87636 15.3055C1.61455 14.3018 1.30909 12.4582 1.30909 9.3382C1.30909 6.2182 1.61455 4.37457 1.87636 3.37093C1.91929 3.20445 2.00096 3.05047 2.11471 2.92156C2.22846 2.79264 2.37107 2.69243 2.53091 2.62911C6.02182 1.28729 11.9345 1.30911 12 1.30911C12.0655 1.30911 17.9782 1.28729 21.4691 2.62911C21.6289 2.69243 21.7715 2.79264 21.8853 2.92156C21.999 3.05047 22.0807 3.20445 22.1236 3.37093C22.3855 4.37457 22.6909 6.2182 22.6909 9.3382C22.6909 12.4582 22.3855 14.3018 22.1236 15.3055Z"/>
  </symbol>

  <symbol viewBox="0 0 20 18" id="social-tw">
    <path fill-rule="evenodd" clip-rule="evenodd" d="M19.4608 0.152905C19.6393 0.302216 19.7255 0.534898 19.6872 0.764481L17.0611 16.5214C17.0244 16.7411 16.8789 16.9273 16.6745 17.0159C16.47 17.1045 16.2346 17.0833 16.0493 16.9597L8.17082 11.7074C8.01771 11.6054 7.91447 11.4437 7.88624 11.2619C7.858 11.08 7.90738 10.8947 8.02233 10.751L10.633 7.48773L6.27303 10.3944C6.077 10.525 5.82597 10.5407 5.61524 10.4353L0.362931 7.80915C0.127693 7.69153 -0.0146529 7.44488 0.00119976 7.18235C0.0170525 6.91983 0.188044 6.6921 0.435726 6.60364L18.8188 0.0382579C19.038 -0.0400244 19.2822 0.00359465 19.4608 0.152905ZM2.32626 7.32275L5.86168 9.09046L13.4231 4.0495C13.6925 3.86994 14.0525 3.91349 14.2712 4.1521C14.49 4.3907 14.5022 4.75314 14.3 5.00591L9.49502 11.0121L15.9328 15.3039L18.2083 1.65058L2.32626 7.32275Z"/>
  </symbol>

  <symbol viewBox="0 0 27 34" id="logo-html-academy">
    <path d="M13.6426 0.0157537L13.5 0L0 1.40733V26.0129L13.5 34L27 26.0129V1.40733L13.6426 0.0157537ZM25.2344 25.0151L13.5 31.9573L1.76561 25.0151V14.9293L13.4507 21.8451L13.4701 23.0984L5.45351 18.3548L5.44295 19.5801L13.4894 24.3885L13.5088 25.675L5.46408 20.9174L5.45351 22.1427L13.5 26.9511L21.6239 22.1182V20.8929V16.909L25.2432 14.7595L25.2344 25.0151ZM25.2344 13.4519L22.0147 15.3319L20.5325 16.2071L13.4666 12.0201L13.456 13.2454L19.4957 16.818L19.4429 16.8495L19.3126 16.9247L18.4536 17.4166L13.4666 14.4689L13.456 15.6942L17.3921 18.0222L16.4591 18.6314L16.438 18.6436L13.4666 16.902L13.456 18.1273L15.4029 19.2615L13.4155 20.4483L1.7973 13.5762L13.4349 6.61831L25.2344 13.4519ZM25.2344 12.2266L13.4401 5.31075L1.76561 12.2196V2.9897L13.5 1.76442L25.2344 2.9897V12.2266Z"/>
  </symbol>

<!-- Каталог -->
  <symbol viewBox="0 0 80 84" id="icon-gift">
    <path d="M65.6571 36.7572H14.3908C12.5914 36.7572 11.1277 35.2941 11.1277 33.4953V23.7228C11.1277 21.9241 12.5914 20.4603 14.3908 20.4603H65.6564C67.4552 20.4603 68.9183 21.9241 68.9183 23.7228V33.4959C68.9189 35.2941 67.4558 36.7572 65.6571 36.7572ZM14.3908 22.9603C13.9771 22.9603 13.6277 23.3097 13.6277 23.7228V33.4959C13.6277 33.9159 13.9702 34.2578 14.3908 34.2578H65.6564C66.0764 34.2578 66.4183 33.9159 66.4183 33.4959V23.7228C66.4183 23.3091 66.0689 22.9603 65.6564 22.9603H14.3908Z" fill="white"/>
    <path d="M58.5075 70.236H21.5375C18.0737 70.236 15.2556 67.4185 15.2556 63.9541V35.5072C15.2556 34.8172 15.8156 34.2572 16.5056 34.2572C17.1956 34.2572 17.7556 34.8172 17.7556 35.5072V63.9541C17.7556 66.0397 19.4525 67.736 21.5375 67.736H58.5075C60.5919 67.736 62.2881 66.0397 62.2881 63.9541V35.5072C62.2881 34.8172 62.8481 34.2572 63.5381 34.2572C64.2281 34.2572 64.7881 34.8172 64.7881 35.5072V63.9541C64.7881 67.4185 61.9706 70.236 58.5075 70.236Z" fill="white"/>
    <path d="M40.0232 70.236C39.3332 70.236 38.7732 69.6766 38.7732 68.986V35.5072C38.7732 34.8172 39.3332 34.2572 40.0232 34.2572C40.7132 34.2572 41.2732 34.8172 41.2732 35.5072V68.9853C41.2732 69.6766 40.7138 70.236 40.0232 70.236Z" fill="white"/>
    <path d="M24.4218 22.956C20.5093 20.836 19.0493 15.9285 21.1674 12.0154C23.2843 8.10414 28.1911 6.64352 32.1055 8.75977C38.0686 11.9898 41.2886 21.001 41.4224 21.3829L39.0643 22.2123C39.0343 22.1273 36.0261 13.7266 30.9161 10.9585C28.213 9.49727 24.8268 10.506 23.3661 13.2054C21.9043 15.9073 22.9118 19.2948 25.6136 20.7579L24.4218 22.956Z" fill="white"/>
    <path d="M55.6218 22.956L54.4318 20.7572C55.7411 20.0478 56.6955 18.8722 57.1205 17.4466C57.5449 16.0203 57.388 14.5141 56.6786 13.206C55.9711 11.8966 54.7961 10.9428 53.3705 10.5185C51.9443 10.0941 50.4393 10.2503 49.1305 10.9585C44.0205 13.726 41.0124 22.1266 40.9824 22.2116L38.6243 21.3822C38.758 21.0003 41.9774 11.9891 47.9405 8.7597C49.8355 7.73345 52.0186 7.5072 54.0836 8.1222C56.1505 8.73658 57.8524 10.1197 58.878 12.0153C59.9049 13.9103 60.1318 16.0922 59.5168 18.1591C58.9011 20.2253 57.518 21.9285 55.6218 22.956Z" fill="white"/>
    <path d="M63.5381 53.4972H16.5056C15.8156 53.4972 15.2556 52.9372 15.2556 52.2472C15.2556 51.5572 15.8156 50.9972 16.5056 50.9972H63.5381C64.2281 50.9972 64.7881 51.5572 64.7881 52.2472C64.7881 52.9372 64.2287 53.4972 63.5381 53.4972Z" fill="white"/>
  </symbol>
</svg>
